# xmcd
# Track frame offsets:
# 150
# 11808
# 25039
# 36961
# 48696
# 60876
# 72597
# 92284
# 104208
# 117900
# 129965
# 143185
# 157967
# 175605
# 191376
# 213161
# 227574
# 244977
#
# Disc length: 3520 seconds
# Revision: 0
# Processed by: cddbd v1.5.2PL0 Copyright (c) Steve Scherf et al.
# Submitted via: VisiTrax 2.11.2.271 - For more info visit www.synapsa.com
#
DISCID=ef0dbe12
DTITLE=Various (1950's-2000's) Country Artists - Always On My Mind: The Roman
DTITLE=tic Side Of Country: CD2 of 5: *ReMastered Tracks
DYEAR=2006
DGENRE=Country
TTITLE0=Crystal Gale - Don't It Make My Brown Eyes Blue*
TTITLE1=Dolly Parton - Here You Come Again*
TTITLE2=Brenda Lee - I'm Sorry*
TTITLE3=Patsy Cline - Walkin' After Midnight*
TTITLE4=Tammy Wynette - Stand By Your Man*
TTITLE5=Sammi Smith - Help Me Make It Through The Night*
TTITLE6=Judds The - Young Love*
TTITLE7=Wanda Jackson - Right Or Wrong*
TTITLE8=Patsy Cline - She's Got You*
TTITLE9=Dolly Parton - Jolene*
TTITLE10=Lynn Anderson - Rose Garden*
TTITLE11=Billie Jo Spears - I Don't Want To Talk About It*
TTITLE12=Gretchen Peters - On A Bus To St Cloud*
TTITLE13=Crystal Gale - I'll Get Over You*
TTITLE14=Wynonna - To Be Loved By You*
TTITLE15=Tanya Tucker - Just Another Love*
TTITLE16=Reba McEntire - Till You Love Me*
TTITLE17=Nanci Griffith - From A Distance*
EXTD=Compilation: Readers Digest: 2006
EXTT0=
EXTT1=
EXTT2=
EXTT3=
EXTT4=
EXTT5=
EXTT6=
EXTT7=
EXTT8=
EXTT9=
EXTT10=
EXTT11=
EXTT12=
EXTT13=
EXTT14=
EXTT15=
EXTT16=
EXTT17=
PLAYORDER=
